<?xml version="1.0" standalone="no"?><!DOCTYPE svg PUBLIC "-//W3C//DTD SVG 1.1//EN" "http://www.w3.org/Graphics/SVG/1.1/DTD/svg11.dtd"><svg class="icon" width="200px" height="200.00px" viewBox="0 0 1024 1024" version="1.1" xmlns="http://www.w3.org/2000/svg"><path  d="M469.333333 300.970667V170.666667a42.666667 42.666667 0 0 0-72.832-30.165334l-298.666666 298.666667a42.624 42.624 0 0 0 0 60.330667l298.666666 298.666666A42.624 42.624 0 0 0 469.333333 768v-132.096c12.117333-0.853333 24.106667-1.237333 35.968-1.237333 231.509333 0 351.530667 152.405333 356.778667 159.146666a42.496 42.496 0 0 0 47.488 14.634667A42.666667 42.666667 0 0 0 938.666667 768c0-389.290667-345.002667-455.722667-469.333334-467.029333z m35.968 248.362666c-27.605333 0-55.978667 1.92-84.266666 5.674667A42.709333 42.709333 0 0 0 384 597.333333v67.669334L188.330667 469.333333 384 273.664V341.333333c0 23.552 20.096 42.666667 43.605333 42.666667 38.826667 0 346.197333 8.576 412.970667 274.133333-70.570667-51.968-182.656-108.8-335.274667-108.8z"  /></svg>